<svg width="16" height="13" viewBox="0 0 16 13" fill="none" xmlns="http://www.w3.org/2000/svg">
<g id="Email">
<path id="Vector" d="M14.6693 3.33594V10.0026C14.6693 10.4446 14.4937 10.8686 14.1811 11.1811C13.8686 11.4937 13.4446 11.6693 13.0026 11.6693H3.0026C2.56058 11.6693 2.13665 11.4937 1.82409 11.1811C1.51153 10.8686 1.33594 10.4446 1.33594 10.0026V3.33594" stroke="#FC9300" stroke-width="1.5" stroke-linecap="round" stroke-linejoin="round"/>
<path id="Vector_2" d="M14.6693 3.33854C14.6693 2.89651 14.4937 2.47259 14.1811 2.16003C13.8686 1.84747 13.4446 1.67188 13.0026 1.67188H3.0026C2.56058 1.67188 2.13665 1.84747 1.82409 2.16003C1.51153 2.47259 1.33594 2.89651 1.33594 3.33854L7.11927 6.94965C7.38416 7.11521 7.69024 7.20299 8.0026 7.20299C8.31497 7.20299 8.62105 7.11521 8.88594 6.94965L14.6693 3.33854Z" stroke="#FC9300" stroke-width="1.5" stroke-linecap="round" stroke-linejoin="round"/>
</g>
</svg>
