<svg width="40" height="36" viewBox="0 0 40 36" fill="none" xmlns="http://www.w3.org/2000/svg">
<g id="Clip path group">
<mask id="mask0_17847_6271" style="mask-type:luminance" maskUnits="userSpaceOnUse" x="0" y="0" width="40" height="36">
<g id="clip0_236_138">
<path id="Vector" d="M40 0.578125H0V35.7766H40V0.578125Z" fill="white"/>
</g>
</mask>
<g mask="url(#mask0_17847_6271)">
<g id="Group">
<path id="Vector_2" d="M10.8099 29.9654H10.4322L8.54688 28.0801V27.7024L11.429 24.8203H13.4258L13.692 25.0865V27.0833L10.8099 29.9654Z" fill="#FED499"/>
<path id="Vector_3" d="M8.54688 8.64581V8.26812L10.4322 6.38281H10.8099L13.692 9.26494V11.2617L13.4258 11.5279H11.429L8.54688 8.64581Z" fill="#FED499"/>
<path id="Vector_4" d="M25.1412 23.8904H22.3984L22.1693 23.6613V17.2407C22.1693 16.0984 21.7204 15.213 20.3428 15.1821C19.6339 15.1635 18.8228 15.1821 17.956 15.2161L17.826 15.3493V23.6582L17.5969 23.8873H14.8541L14.625 23.6582V12.69L14.8541 12.4609H21.027C23.4262 12.4609 25.3703 14.4051 25.3703 16.8042V23.6613L25.1412 23.8904Z" fill="#FC9300"/>
<path id="Vector_5" d="M11.2004 19.7853H0.229084L0 19.5562V16.8072L0.229084 16.5781H11.2004L11.4295 16.8072V19.5562L11.2004 19.7853Z" fill="#FED499"/>
<path id="Vector_6" d="M39.7708 19.7853H28.7994L28.5703 19.5562V16.8072L28.7994 16.5781H39.7708L39.9998 16.8072V19.5562L39.7708 19.7853Z" fill="#FED499"/>
<path id="Vector_7" d="M18.4219 9.03569V0.807209L18.651 0.578125H21.4L21.6291 0.807209V9.03569L21.4 9.26475H18.651L18.4219 9.03569Z" fill="#FED499"/>
<path id="Vector_8" d="M18.4219 35.5512V27.3228L18.651 27.0938H21.4L21.6291 27.3228V35.5512L21.4 35.7803H18.651L18.4219 35.5512Z" fill="#FED499"/>
</g>
</g>
</g>
</svg>
