<svg width="224" height="200" viewBox="0 0 224 200" fill="none" xmlns="http://www.w3.org/2000/svg">
<path fill-rule="evenodd" clip-rule="evenodd" d="M111.645 67.7859C120.639 58.7002 132.379 48.9455 145.21 41.5502C139.039 28.7963 125.975 20 110.857 20C96.0134 20 83.1506 28.4789 76.8474 40.8575C90.1529 48.33 102.354 58.4151 111.631 67.788V96.2737C111.636 96.2736 111.641 96.2735 111.645 96.2734V67.7859ZM111.631 128.685H111.645V199.998C115.352 196.984 119.216 193.777 123.187 190.408C175.825 145.748 247.112 72.5986 215.458 42.2343C200.172 27.5703 181.474 26.9892 163.373 33.1621C154.029 13.5522 134.026 0 110.857 0C87.8637 0 67.9881 13.347 58.555 32.7158C40.8761 27.0267 22.7237 27.9336 7.8159 42.2343C-23.8375 72.5986 47.4498 145.748 100.087 190.408C104.059 193.777 107.924 196.985 111.631 199.999V128.685ZM100.087 94.7397V84.6276C92.9524 77.0101 83.3493 68.5522 72.8906 61.8154C74.3907 77.5073 85.3986 90.4245 100.087 94.7397ZM53.0437 51.9297C39.5922 47.3807 29.5166 49.1317 21.6611 56.6673L21.6577 56.6705C20.7468 57.5443 18.2724 59.9178 21.8518 70.2299C25.4353 80.5537 33.7307 93.7589 45.9109 108.685L82.1033 108.685C64.5503 98.6784 52.7158 79.7916 52.7158 58.1407C52.7158 56.0425 52.827 53.9703 53.0437 51.9297ZM63.5727 128.685H100.087V163.911C87.8178 152.988 75.1628 140.954 63.5727 128.685ZM123.187 84.6276C129.938 77.4206 138.897 69.4613 148.701 62.919C146.872 77.5544 136.75 89.6131 123.187 94.2441V84.6276ZM123.187 163.911V128.685H159.702C148.112 140.954 135.457 152.988 123.187 163.911ZM139.61 108.685L177.363 108.685C189.544 93.7589 197.839 80.5537 201.422 70.2299C205.002 59.9178 202.527 57.5443 201.617 56.6705L201.613 56.6673C193.467 48.8528 182.933 47.259 168.723 52.4606C168.905 54.3295 168.997 56.2243 168.997 58.1407C168.997 79.7916 157.163 98.6784 139.61 108.685Z" fill="#2352A0"/>
</svg>
